grf
version=1
nRows=11
nColumns=37
inDegrees=no
endheader
time	ground_force_1_vx	ground_force_1_vy	ground_force_1_vz	ground_force_1_px	ground_force_1_py	ground_force_1_pz	ground_moment_1_mx	ground_moment_1_my	ground_moment_1_mz	ground_force_2_vx	ground_force_2_vy	ground_force_2_vz	ground_force_2_px	ground_force_2_py	ground_force_2_pz	ground_moment_2_mx	ground_moment_2_my	ground_moment_2_mz	ground_force_3_vx	ground_force_3_vy	ground_force_3_vz	ground_force_3_px	ground_force_3_py	ground_force_3_pz	ground_moment_3_mx	ground_moment_3_my	ground_moment_3_mz	ground_force_4_vx	ground_force_4_vy	ground_force_4_vz	ground_force_4_px	ground_force_4_py	ground_force_4_pz	ground_moment_4_mx	ground_moment_4_my	ground_moment_4_mz
      1.62000000	      0.00000000	     -0.00000000	      0.00000000	      0.00000000	      0.00000000	      0.00000000	      0.00000000	      0.00000000	      0.00000000	      9.60999298	     59.51439285	   -398.89743042	   -354.19054888	  -1151.77203467	      0.00000000	      0.00000000	      0.00000000	   4029.73077713	      8.48423769	    -32.55885008	   -364.83480835	   -401.22051182	   -707.72525827	      0.00000000	      0.00000000	     -0.00000000	  -7927.61180425	      0.00000000	     -0.00000000	      0.00000000	      0.00000000	      0.00000000	      0.00000000	      0.00000000	      0.00000000	      0.00000000
      1.63000000	      0.00000000	     -0.00000000	      0.00000000	      0.00000000	      0.00000000	      0.00000000	      0.00000000	      0.00000000	      0.00000000	      9.58307266	     57.88668060	   -402.91516113	   -353.56449533	  -1151.09414057	      0.00000000	      0.00000000	      0.00000000	   4096.01541132	      7.02267114	    -33.63472428	   -373.50762939	   -396.96971997	   -705.82240981	      0.00000000	      0.00000000	     -0.00000000	  -8112.87158626	      0.00000000	     -0.00000000	      0.00000000	      0.00000000	      0.00000000	      0.00000000	      0.00000000	      0.00000000	      0.00000000
      1.64000000	      0.00000000	     -0.00000000	      0.00000000	      0.00000000	      0.00000000	      0.00000000	      0.00000000	      0.00000000	      0.00000000	      9.92085171	     56.44475937	   -408.30273438	   -353.36397817	  -1151.18081712	      0.00000000	      0.00000000	      0.00000000	   4221.30088342	      5.17043585	    -33.41070602	   -378.92874146	   -394.42452044	   -704.87236796	      0.00000000	      0.00000000	     -0.00000000	  -8090.16729260	      0.00000000	     -0.00000000	      0.00000000	      0.00000000	      0.00000000	      0.00000000	      0.00000000	      0.00000000	      0.00000000
      1.65000000	      0.00000000	     -0.00000000	      0.00000000	      0.00000000	      0.00000000	      0.00000000	      0.00000000	      0.00000000	      0.00000000	      9.58050060	     55.36888885	   -410.47088623	   -352.83450329	  -1150.10041746	      0.00000000	      0.00000000	      0.00000000	   4512.57728996	      4.27080918	    -32.67900123	   -380.28823853	   -391.73694480	   -705.38162879	      0.00000000	      0.00000000	     -0.00000000	  -8202.29035775	      0.00000000	     -0.00000000	      0.00000000	      0.00000000	      0.00000000	      0.00000000	      0.00000000	      0.00000000	      0.00000000
      1.66000000	      0.00000000	     -0.00000000	      0.00000000	      0.00000000	      0.00000000	      0.00000000	      0.00000000	      0.00000000	      0.00000000	      8.45534420	     54.49644470	   -410.74829102	   -352.43208345	  -1149.05768459	      0.00000000	      0.00000000	      0.00000000	   4460.79316125	      4.34682564	    -32.24322929	   -383.14337158	   -389.76052238	   -705.42760932	      0.00000000	      0.00000000	     -0.00000000	  -8251.52453878	      0.00000000	     -0.00000000	      0.00000000	      0.00000000	      0.00000000	      0.00000000	      0.00000000	      0.00000000	      0.00000000
      1.67000000	      0.00000000	     -0.00000000	      0.00000000	      0.00000000	      0.00000000	      0.00000000	      0.00000000	      0.00000000	      0.00000000	      7.89672661	     54.10941315	   -414.87194824	   -351.94550394	  -1149.12624554	      0.00000000	      0.00000000	      0.00000000	   4686.92487953	      4.52147972	    -31.45270578	   -385.16500854	   -387.66781569	   -704.58294545	      0.00000000	      0.00000000	     -0.00000000	  -8323.61103202	      0.00000000	     -0.00000000	      0.00000000	      0.00000000	      0.00000000	      0.00000000	      0.00000000	      0.00000000	      0.00000000
      1.68000000	      0.00000000	     -0.00000000	      0.00000000	      0.00000000	      0.00000000	      0.00000000	      0.00000000	      0.00000000	      0.00000000	      7.20515633	     53.44146729	   -416.10897827	   -351.79857366	  -1148.05568124	      0.00000000	      0.00000000	      0.00000000	   4806.98047384	      5.14012547	    -30.44492576	   -385.68948364	   -385.68988698	   -704.30442920	      0.00000000	      0.00000000	     -0.00000000	  -8430.69523053	      0.00000000	     -0.00000000	      0.00000000	      0.00000000	      0.00000000	      0.00000000	      0.00000000	      0.00000000	      0.00000000
      1.69000000	      0.00000000	     -0.00000000	      0.00000000	      0.00000000	      0.00000000	      0.00000000	      0.00000000	      0.00000000	      0.00000000	      6.71971369	     52.17264557	   -417.81188965	   -350.71081641	  -1148.09603867	      0.00000000	      0.00000000	      0.00000000	   4844.60976852	      5.39337610	    -30.08659410	   -385.58578491	   -384.18614107	   -704.58931434	      0.00000000	     -0.00000000	     -0.00000000	  -8512.92574610	      0.00000000	     -0.00000000	      0.00000000	      0.00000000	      0.00000000	      0.00000000	      0.00000000	      0.00000000	      0.00000000
      1.70000000	      0.00000000	     -0.00000000	      0.00000000	      0.00000000	      0.00000000	      0.00000000	      0.00000000	      0.00000000	      0.00000000	      5.85663509	     50.69309235	   -415.94030762	   -350.93930679	  -1147.33125833	      0.00000000	      0.00000000	      0.00000000	   5032.69996181	      5.20290965	    -30.67417190	   -386.85998535	   -381.92371863	   -703.95270014	      0.00000000	      0.00000000	      0.00000000	  -8801.13654924	      0.00000000	     -0.00000000	      0.00000000	      0.00000000	      0.00000000	      0.00000000	      0.00000000	      0.00000000	      0.00000000
      1.71000000	      0.00000000	     -0.00000000	      0.00000000	      0.00000000	      0.00000000	      0.00000000	      0.00000000	      0.00000000	      0.00000000	      5.67335033	     49.60107040	   -417.09716797	   -349.64355344	  -1147.84784744	      0.00000000	      0.00000000	      0.00000000	   5153.94991516	      5.34014816	    -30.53449868	   -385.75170898	   -380.22059899	   -703.48481456	      0.00000000	      0.00000000	     -0.00000000	  -8873.82339359	      0.00000000	     -0.00000000	      0.00000000	      0.00000000	      0.00000000	      0.00000000	      0.00000000	      0.00000000	      0.00000000
      1.72000000	      0.00000000	     -0.00000000	      0.00000000	      0.00000000	      0.00000000	      0.00000000	      0.00000000	      0.00000000	      0.00000000	      6.47747946	     48.75819016	   -415.58523560	   -349.45857587	  -1147.81183842	      0.00000000	      0.00000000	      0.00000000	   5256.96284361	      5.62689565	    -30.17900898	   -383.39730835	   -378.68464521	   -704.38768068	      0.00000000	      0.00000000	      0.00000000	  -9003.35834883	      0.00000000	     -0.00000000	      0.00000000	      0.00000000	      0.00000000	      0.00000000	      0.00000000	      0.00000000	      0.00000000
